# Blender 4.5.3 LTS
# www.blender.org
mtllib debug_floor.mtl
o Cube.001
v -17.500000 -2.500000 17.500000
v -17.500000 0.000000 17.500000
v -17.500000 -2.500000 -17.500000
v -17.500000 0.000000 -17.500000
v 17.500000 -2.500000 17.500000
v 17.500000 0.000000 17.500000
v 17.500000 -2.500000 -17.500000
v 17.500000 0.000000 -17.500000
vn -1.0000 -0.0000 -0.0000
vn -0.0000 -0.0000 -1.0000
vn 1.0000 -0.0000 -0.0000
vn -0.0000 -0.0000 1.0000
vn -0.0000 -1.0000 -0.0000
vn -0.0000 1.0000 -0.0000
vt -3.000000 0.000000
vt -3.000000 0.500000
vt 4.000000 0.500000
vt 4.000000 0.000000
vt 4.000000 0.000000
vt 4.000000 0.500000
vt -3.000000 0.500000
vt -3.000000 0.000000
vt -3.000000 4.000000
vt 4.000000 4.000000
vt 4.000000 -3.000000
vt -3.000000 -3.000000
vt -3.000000 4.000000
vt -3.000000 -3.000000
vt 4.000001 -3.000000
s 0
usemtl Debug
f 1/1/1 2/2/1 4/3/1 3/4/1
f 3/1/2 4/2/2 8/3/2 7/4/2
f 7/5/3 8/6/3 6/7/3 5/8/3
f 5/5/4 6/6/4 2/7/4 1/8/4
f 3/9/5 7/10/5 5/11/5 1/12/5
f 8/10/6 4/13/6 2/14/6 6/15/6
