# Blender 4.5.3 LTS
# www.blender.org
mtllib room.mtl
o Cube
v -3.921000 2.000000 -0.500000
v -3.921000 -0.000000 -0.500000
v -3.921000 2.000000 0.500000
v -3.921000 0.000000 0.500000
v -4.921000 2.000000 -0.500000
v -4.921000 -0.000000 -0.500000
v -4.921000 2.000000 0.500000
v -4.921000 0.000000 0.500000
v -3.921000 1.000000 0.500000
v -3.921000 1.000000 -0.500000
v -4.921000 1.000000 -0.500000
v -4.921000 1.000000 0.500000
v -3.921000 0.500000 0.500000
v -3.921000 0.500000 -0.500000
v -4.921000 0.500000 -0.500000
v -4.921000 0.500000 0.500000
v -4.921000 0.750000 0.500000
v -3.921000 0.750000 0.500000
v -3.921000 0.750000 -0.500000
v -4.921000 0.750000 -0.500000
v -3.921000 0.750000 -1.500000
v -3.921000 0.500000 -1.500000
v -4.921000 0.750000 -1.500000
v -4.921000 0.500000 -1.500000
v -3.921000 0.750000 -1.600000
v -3.921000 0.500000 -1.600000
v -4.921000 0.750000 -1.600000
v -4.921000 0.500000 -1.600000
v -4.921000 0.034244 -1.500000
v -3.921000 0.034244 -1.500000
v -4.921000 0.034244 -1.600000
v -3.921000 0.034244 -1.600000
vn -0.0000 1.0000 -0.0000
vn -0.0000 -1.0000 -0.0000
vn -0.0000 -0.0000 1.0000
vn 1.0000 -0.0000 -0.0000
vn -0.0000 -0.0000 -1.0000
vn -1.0000 -0.0000 -0.0000
vt 1.330775 1.318686
vt 1.330775 1.482423
vt 1.167037 1.482423
vt 1.167037 1.318686
vt -0.306596 1.385264
vt -0.306596 1.549001
vt -0.470333 1.549001
vt -0.470333 1.385264
vt -0.306596 0.318244
vt -0.306596 0.481981
vt -0.470333 0.481981
vt -0.470333 0.318244
vt -0.524912 1.955615
vt -0.688650 1.955615
vt -0.688650 1.791878
vt -0.524912 1.791878
vt -0.306596 1.041416
vt -0.306596 1.205153
vt -0.470333 1.205153
vt -0.470333 1.041416
vt 1.540085 1.831869
vt 1.703822 1.831869
vt 1.703822 1.995606
vt 1.540085 1.995606
vt 1.499151 1.831869
vt 1.499151 1.995606
vt -0.306596 1.000482
vt -0.470333 1.000482
vt -0.483978 1.955615
vt -0.483978 1.791878
vt -0.306596 0.277310
vt -0.470333 0.277310
vt -0.306596 0.154507
vt -0.306596 0.236376
vt -0.470333 0.236376
vt -0.470333 0.154507
vt -0.361175 1.955615
vt -0.443044 1.955615
vt -0.443044 1.791878
vt -0.361175 1.791878
vt -0.306596 0.754876
vt -0.306596 0.836745
vt -0.470333 0.836745
vt -0.470333 0.754876
vt 1.376348 1.831869
vt 1.458216 1.831869
vt 1.458216 1.995606
vt 1.376348 1.995606
vt -0.306596 1.368890
vt -0.470333 1.368890
vt -0.443044 2.119352
vt -0.483978 2.119352
vt 1.499151 2.159343
vt 1.458216 2.159343
vt 1.243299 1.482423
vt 1.284233 1.482423
vt 1.284233 1.646160
vt 1.243299 1.646160
vt 1.499151 2.175717
vt 1.458216 2.175717
vt 1.381955 2.175717
vt 1.381955 2.159343
vt -0.443044 2.135726
vt -0.483978 2.135726
vt -0.306596 1.426198
vt -0.306596 1.262461
vt -0.290222 1.262461
vt -0.290222 1.426198
vt 1.167037 1.646160
vt -0.366782 2.119352
vt -0.366782 2.135726
vt 1.360495 1.482423
vt 1.360495 1.646160
s 1
usemtl ColorNoTexture.001
f 1/1/1 5/2/1 7/3/1 3/4/1
f 6/5/2 2/6/2 4/7/2 8/8/2
f 9/9/3 3/10/3 7/11/3 12/12/3
f 10/13/4 1/14/4 3/15/4 9/16/4
f 11/17/5 5/18/5 1/19/5 10/20/5
f 12/21/6 7/22/6 5/23/6 11/24/6
f 17/25/6 12/21/6 11/24/6 20/26/6
f 20/27/5 11/17/5 10/20/5 19/28/5
f 19/29/4 10/13/4 9/16/4 18/30/4
f 18/31/3 9/9/3 12/12/3 17/32/3
f 4/33/3 13/34/3 16/35/3 8/36/3
f 2/37/4 14/38/4 13/39/4 4/40/4
f 6/41/5 15/42/5 14/43/5 2/44/5
f 8/45/6 16/46/6 15/47/6 6/48/6
f 13/34/3 18/31/3 17/32/3 16/35/3
f 14/38/4 19/29/4 18/30/4 13/39/4
f 20/19/1 19/18/1 21/49/1 23/50/1
f 16/46/6 17/25/6 20/26/6 15/47/6
f 23/50/1 21/49/1 25/5/1 27/8/1
f 19/29/4 14/38/4 22/51/4 21/52/4
f 14/43/2 15/42/2 24/27/2 22/28/2
f 15/47/6 20/26/6 23/53/6 24/54/6
f 28/55/5 27/56/5 25/57/5 26/58/5
f 24/54/6 23/53/6 27/59/6 28/60/6
f 24/54/6 28/60/6 31/61/6 29/62/6
f 21/52/4 22/51/4 26/63/4 25/64/4
f 30/65/2 29/66/2 31/67/2 32/68/2
f 28/55/5 26/58/5 32/69/5 31/3/5
f 26/63/4 22/51/4 30/70/4 32/71/4
f 22/72/3 24/73/3 29/57/3 30/56/3
o Plane
v -5.000000 0.000000 5.000000
v 5.000000 0.000000 5.000000
v -5.000000 -0.000000 -5.000000
v 5.000000 -0.000000 -5.000000
v -5.000000 3.000000 -5.000000
v -5.000000 3.000000 5.000000
v 5.000000 3.000000 5.000000
v 5.000000 3.000000 -5.000000
v -5.000000 0.000000 0.000000
v 5.000000 0.000000 0.000000
v -5.000000 3.000000 -0.000000
v 5.000000 3.000000 -0.000000
v -5.000000 0.000000 1.665784
v -5.000000 0.000000 3.332450
v -5.000000 3.000000 1.665784
v -5.000000 3.000000 3.332450
v 5.000000 0.000000 3.332450
v 5.000000 0.000000 1.665784
v 5.000000 3.000000 3.332450
v 5.000000 3.000000 1.665784
v -5.000000 2.549999 -5.000000
v 5.000000 2.549999 -5.000000
v 5.000000 2.550000 5.000000
v -5.000000 2.550000 5.000000
v -5.000000 2.550000 -0.000000
v 5.000000 2.550000 -0.000000
v 5.000000 2.550000 3.332450
v 5.000000 2.550000 1.665784
v -5.000000 2.550000 1.665784
v -5.000000 2.550000 3.332450
v -5.134191 0.000000 5.107362
v 5.134191 0.000000 5.107362
v -5.134191 -0.000000 -5.161019
v 5.134191 -0.000000 -5.161019
v -5.134191 3.721668 -5.161019
v -5.134191 3.721670 5.107359
v 5.134191 3.721670 5.107359
v 5.134191 3.721668 -5.161019
v -5.134191 -0.000000 -0.026829
v 5.134191 -0.000000 -0.026829
v -5.134191 3.721669 -0.026829
v 5.134191 3.721669 -0.026829
v -5.134191 0.000000 1.665784
v -5.134191 0.000000 3.332450
v -5.134191 3.721670 1.665784
v -5.134191 3.721670 3.332450
v 5.134191 0.000000 3.332450
v 5.134191 0.000000 1.665784
v 5.134191 3.721670 3.332450
v 5.134191 3.721670 1.665784
v -5.134191 2.549999 -5.161019
v 5.134191 2.549999 -5.161019
v 5.134191 2.550000 5.107362
v -5.134191 2.550000 5.107362
v -5.134191 2.550000 -0.026829
v 5.134191 2.550000 -0.026829
v 5.134191 2.550000 3.332450
v 5.134191 2.550000 1.665784
v -5.134191 2.550000 1.665784
v -5.134191 2.550000 3.332450
v -5.134191 -2.000000 5.107362
v 5.134191 -2.000000 5.107362
v -5.134191 -2.000000 -5.161019
v 5.134191 -2.000000 -5.161019
v -5.134191 -2.000000 -0.026829
v 5.134191 -2.000000 -0.026829
v -5.134191 -2.000000 1.683662
v -5.134191 -2.000000 3.395058
v 5.134191 -2.000000 3.332450
v 5.134191 -2.000000 1.665784
v 8.000000 -1.000000 1.665784
v 8.000000 -1.000000 3.332450
v 8.000000 -2.000000 1.665784
v 8.000000 -2.000000 3.332450
v -5.062835 0.000000 1.665784
v -5.062835 0.000000 3.332450
v -5.062835 2.550000 1.665784
v -5.062835 2.550000 3.332450
v -5.339775 -0.206053 2.604161
v -5.339775 -0.206053 4.270827
v -5.339775 2.343947 2.604160
v -5.339775 2.343947 4.270827
v -0.839774 0.750197 -1.562506
v 0.160225 0.750197 -1.562506
v -0.839774 1.387697 -1.562506
v 0.160225 1.387697 -1.562506
v -0.839774 0.750197 -1.240409
v 0.160225 0.750197 -1.240409
v -0.839774 1.387697 -1.240409
v 0.160225 1.387697 -1.240409
v -0.839774 0.750197 -0.879924
v 0.160225 0.750197 -0.879924
v -0.839774 1.387697 -0.879924
v 0.160225 1.387697 -0.879924
v -0.839774 0.750197 -0.534840
v 0.160225 0.750197 -0.534840
v -0.839774 1.387697 -0.534840
v 0.160225 1.387697 -0.534840
v 0.535850 0.750197 -1.562506
v 1.535850 0.750197 -1.562506
v 0.535850 1.387697 -1.562506
v 1.535850 1.387697 -1.562506
v 0.535850 0.750197 -1.240409
v 1.535850 0.750197 -1.240409
v 0.535850 1.387697 -1.240409
v 1.535850 1.387697 -1.240409
v 0.535850 0.750197 -0.879924
v 1.535850 0.750197 -0.879924
v 0.535850 1.387697 -0.879924
v 1.535850 1.387697 -0.879924
v 0.535850 0.750197 -0.534840
v 1.535850 0.750197 -0.534840
v 0.535850 1.387697 -0.534840
v 1.535850 1.387697 -0.534840
vn -0.0000 1.0000 -0.0000
vn -0.0000 -1.0000 -0.0000
vn -0.0000 -0.0000 1.0000
vn -0.0000 -0.0000 -1.0000
vn -1.0000 -0.0000 -0.0000
vn 1.0000 -0.0000 -0.0000
vn 0.8845 0.3585 0.2985
vn -0.0000 -0.7071 0.7071
vn 0.3285 -0.4837 0.8113
vn 0.7072 -0.0000 0.7070
vn 0.7070 -0.0000 0.7072
vn 0.3295 0.9442 -0.0000
vn 0.6678 0.6262 -0.4024
vt -2.307737 0.486884
vt -2.307737 -3.604690
vt -0.261023 -3.604690
vt -0.261023 0.486884
vt 1.785690 -0.641192
vt 3.832404 -0.641192
vt 3.832403 3.452234
vt 1.785690 3.452234
vt 1.103814 -0.641192
vt 1.103813 3.452234
vt -2.989614 0.486884
vt -2.989613 -3.604690
vt -4.354451 0.486884
vt -4.354450 -3.604690
vt -3.671851 -3.604690
vt -3.671851 0.486884
vt -0.261023 -0.641193
vt 0.421576 -0.641193
vt 0.421576 3.452234
vt -0.261023 3.452234
vt -3.671851 -3.659595
vt -2.989613 -3.659595
vt 2.031296 1.362630
vt 2.304191 1.362630
vt 2.304191 1.831869
vt 2.031296 1.831869
vt -2.989614 0.541789
vt -3.671851 0.541789
vt -0.544015 0.154507
vt -0.470333 0.154507
vt -0.470333 1.791878
vt -0.544015 1.791878
vt 2.730727 -0.318685
vt 2.804409 -0.318685
vt 2.804409 1.318685
vt 2.730727 1.318685
vt 2.773910 -1.181315
vt 2.847591 -1.181315
vt 2.847591 -0.362629
vt 2.773910 -0.362629
vt 0.749508 1.591726
vt 0.675826 1.591726
vt 0.675826 1.318686
vt 0.749508 1.318686
vt 0.749508 2.956057
vt 0.675826 2.956057
vt 0.675826 2.137371
vt 0.749508 2.137371
vt 2.773910 -1.454065
vt 2.847591 -1.454065
vt 2.773910 -2.000000
vt 2.847591 -2.000000
vt 2.847591 -1.726960
vt 2.773910 -1.726960
vt 0.675826 1.864620
vt 0.749508 1.864620
vt -0.262652 0.572037
vt -0.284624 0.572037
vt -0.284624 0.154507
vt -0.262652 0.154507
vt 1.167037 2.137371
vt 1.167037 1.864620
vt 2.356380 -2.000000
vt 2.356380 -1.726960
vt 2.356380 -1.454065
vt 2.356380 -1.181315
vt 1.167037 2.956057
vt 1.167037 1.591726
vt 1.167037 1.318686
vt 2.356380 -0.362629
vt 2.313198 -0.318685
vt 2.313197 1.318685
vt -0.961544 0.154507
vt -0.961545 1.791878
vt -0.261023 -1.159343
vt 1.419531 -1.159343
vt 1.419531 -0.318685
vt -0.261023 -0.318685
vt -0.261023 -1.436486
vt 1.419531 -1.436486
vt -0.261023 -2.000000
vt 1.419531 -2.000000
vt 1.419531 -1.709381
vt -0.261023 -1.709381
vt 2.121352 1.362629
vt 2.121352 -0.318685
vt 2.313198 1.362629
vt -1.153391 1.835822
vt -1.153390 0.154507
vt -0.961545 0.154507
vt -0.961545 1.835822
vt 1.611376 -1.159343
vt 1.611377 -0.318685
vt 0.483980 1.609304
vt 0.483980 1.318686
vt 0.675826 1.609304
vt 0.483980 3.000000
vt 0.483980 2.159343
vt 0.675826 2.159343
vt 0.675826 3.000000
vt 1.611376 -1.436486
vt 1.611376 -2.000000
vt 1.611376 -1.709381
vt 0.483980 1.882199
vt 0.675826 1.882199
vt -0.306596 0.989566
vt -0.284624 0.989566
vt -0.284624 1.262461
vt -0.306596 1.262461
vt 0.066451 2.159343
vt 0.066451 1.882199
vt 2.028906 -2.000000
vt 2.028906 -1.709381
vt 2.028906 -1.436486
vt 2.028906 -1.159343
vt 0.066451 3.000000
vt 0.066451 1.609304
vt 0.066451 1.318686
vt 2.028906 -0.318685
vt -1.570920 1.835822
vt -1.570920 0.154507
vt 1.703822 1.362629
vt 1.703822 -0.318685
vt -0.262652 1.262461
vt -0.262652 0.989566
vt -0.306596 0.572037
vt 1.703822 1.831869
vt 1.703822 1.362630
vt 1.867559 1.362630
vt -0.261023 1.599053
vt -0.261023 1.318686
vt 1.376348 1.362629
vt 1.376348 -0.318685
vt -1.898394 1.835822
vt -1.898394 0.154507
vt -0.261023 2.159343
vt -0.261023 1.879272
vt -0.261023 3.000000
vt 2.356380 -1.709381
vt 2.356380 -1.436486
vt 2.356380 -1.159343
vt 2.356380 -0.318685
vt -0.470333 0.754876
vt -0.470333 0.481981
vt -0.306596 0.481981
vt -0.306596 0.754876
vt -1.352459 -1.526046
vt -1.625354 -1.526047
vt -1.625354 -2.000000
vt -1.352459 -2.000000
vt 1.376348 1.362630
vt 1.540085 1.831869
vt 1.376348 1.831869
vt -0.306596 0.154507
vt -0.961545 2.209407
vt -0.688650 1.791878
vt -0.688650 2.209407
s 1
usemtl wook.002
f 41/74/7 42/75/7 36/76/7 35/77/7
f 43/78/8 37/79/8 40/80/8 44/81/8
f 47/82/8 43/78/8 44/81/8 52/83/8
f 45/84/7 50/85/7 42/75/7 41/74/7
f 33/86/7 34/87/7 49/88/7 46/89/7
f 46/89/7 49/88/7 50/85/7 45/84/7
f 38/90/8 48/91/8 51/92/8 39/93/8
f 48/91/8 47/82/8 52/83/8 51/92/8
f 49/88/7 79/94/7 80/95/7 50/85/7
f 101/96/8 102/97/8 105/98/8 106/99/8
f 46/89/7 45/84/7 75/100/7 76/101/7
usemtl plaster.002
f 54/102/9 40/103/9 37/104/9 53/105/9
f 56/106/10 38/107/10 39/108/10 55/109/10
f 58/110/11 44/111/11 40/112/11 54/113/11
f 62/114/12 48/115/12 38/116/12 56/117/12
f 53/118/12 37/119/12 43/120/12 57/121/12
f 60/122/11 52/123/11 44/111/11 58/110/11
f 55/124/11 39/125/11 51/126/11 59/127/11
f 59/127/11 51/126/11 52/123/11 60/122/11
f 57/121/12 43/120/12 47/128/12 61/129/12
f 61/129/12 47/128/12 48/115/12 62/114/12
f 61/130/9 91/131/9 75/132/9 45/133/9
f 41/134/12 57/121/12 61/129/12 45/135/12
f 34/136/11 55/124/11 59/127/11 49/137/11
f 50/138/11 60/122/11 58/110/11 42/139/11
f 35/140/12 53/118/12 57/121/12 41/134/12
f 46/141/12 62/114/12 56/117/12 33/142/12
f 42/139/11 58/110/11 54/113/11 36/143/11
f 33/144/10 56/106/10 55/109/10 34/145/10
f 36/146/9 54/102/9 53/105/9 35/147/9
f 73/148/7 74/149/7 70/150/7 67/151/7
f 77/152/7 82/153/7 74/149/7 73/148/7
f 68/154/7 69/155/7 81/156/7 78/157/7
f 78/157/7 81/156/7 82/153/7 77/152/7
f 84/158/10 83/159/10 67/144/10 70/160/10
f 86/161/9 85/162/9 69/163/9 68/164/9
f 88/165/12 84/166/12 70/150/12 74/149/12
f 92/167/11 86/168/11 68/116/11 78/169/11
f 83/170/11 87/171/11 73/172/11 67/173/11
f 90/174/12 88/165/12 74/149/12 82/153/12
f 85/175/12 89/176/12 81/156/12 69/155/12
f 89/176/12 90/174/12 82/153/12 81/156/12
f 87/171/11 91/177/11 77/178/11 73/172/11
f 91/177/11 92/167/11 78/169/11 77/178/11
f 62/179/8 92/180/8 91/181/8 61/182/8
f 71/183/11 75/184/11 91/177/11 87/171/11
f 64/185/12 79/186/13 89/176/12 85/175/12
f 80/187/12 72/188/12 88/165/12 90/174/12
f 65/189/11 71/183/11 87/171/11 83/170/11
f 76/190/11 63/191/11 86/168/11 92/167/11
f 72/188/12 66/192/12 84/166/12 88/165/12
f 63/193/9 64/194/9 85/162/9 86/161/9
f 66/195/10 65/196/10 83/159/10 84/158/10
f 60/197/14 90/181/14 89/180/8 59/198/8
f 50/199/9 80/131/9 90/180/14 60/179/14
f 59/198/10 89/180/10 79/131/10 49/130/10
f 79/99/15 101/200/16 106/201/9 104/202/9
f 63/191/11 76/190/11 100/203/11 93/204/11
f 65/196/10 66/195/10 96/205/10 95/206/10
f 64/194/9 63/193/9 93/207/9 94/208/9
f 75/184/11 71/183/11 97/209/11 99/210/11
f 71/183/11 65/189/11 95/211/11 97/209/11
f 79/186/13 64/185/12 94/136/12 101/212/17
f 72/188/12 80/187/12 102/213/12 98/214/12
f 66/192/12 72/188/12 98/214/12 96/215/12
f 76/190/11 75/184/11 99/210/11 100/203/11
f 103/216/12 104/217/12 106/218/12 105/219/12
f 80/220/18 79/221/19 104/222/18 103/223/18
f 102/224/10 80/201/10 103/225/10 105/226/10
f 62/199/10 46/227/10 76/132/10 92/131/10
usemtl glass_red.004
f 108/228/11 110/147/11 109/229/11 107/230/11
f 112/228/11 114/147/11 113/229/11 111/230/11
f 116/228/9 118/147/9 117/229/9 115/230/9
f 120/228/9 122/147/9 121/229/9 119/230/9
f 124/228/9 126/147/9 125/229/9 123/230/9
f 128/228/9 130/147/9 129/229/9 127/230/9
f 136/228/9 138/147/9 137/229/9 135/230/9
usemtl glass_red.002
f 140/228/9 142/147/9 141/229/9 139/230/9
usemtl glass_red.001
f 144/228/9 146/147/9 145/229/9 143/230/9
usemtl glass_red.003
f 132/228/9 134/147/9 133/229/9 131/230/9
